# AST/ASF file generated using VICON BodyLanguage
# -----------------------------------------------
:version 1.10
:name VICON
:units
  mass 1.0
  length 0.45
  angle deg
:documentation
   .ast/.asf automatically generated from VICON data using
   VICON BodyBuilder and BodyLanguage model FoxedUp or BRILLIANT.MOD
:root
   order TX TY TZ RX RY RZ
   axis XYZ
   position 0 0 0  
   orientation 0 0 0 
:bonedata
  begin
     id 1 
     name lhipjoint
     direction 0.602128 -0.715006 0.355257 
     length 2.21237 
     axis 0 0 0  XYZ
  end
  begin
     id 2 
     name lfemur
     direction 0.34202 -0.939693 0  
     length 6.71649  
     axis 0 0 20  XYZ
    dof rx ry rz
    limits (-160.0 20.0)
           (-70.0 70.0)
           (-60.0 70.0)
  end
  begin
     id 3 
     name ltibia
     direction 0.34202 -0.939693 0   
     length 6.97123   
     axis 0 0 20   XYZ
    dof rx
    limits (-10.0 170.0)
  end
  begin
     id 4 
     name lfoot
     direction 0.0655697 -0.180151 0.981451   
     length 1.80924   
     axis -90 7.62852e-016 20   XYZ
    dof rx rz
    limits (-45.0 90.0)
           (-70.0 20.0)
  end
  begin
     id 5 
     name ltoes
     direction 1.53545e-011 -4.21827e-011 1   
     length 0.916331   
     axis -90 7.62852e-016 20   XYZ
    dof rx
    limits (-90.0 20.0)
  end
  begin
     id 6 
     name rhipjoint
     direction -0.625414 -0.698792 0.347201   
     length 2.2637  
     axis 0 0 0  XYZ 
  end
  begin
     id 7 
     name rfemur
     direction -0.34202 -0.939693 0   
     length 7.07595   
     axis 0 0 -20   XYZ
    dof rx ry rz
    limits (-160.0 20.0)
           (-70.0 70.0)
           (-70.0 60.0)
  end
  begin
     id 8 
     name rtibia
     direction -0.34202 -0.939693 0   
     length 7.22924   
     axis 0 0 -20   XYZ
    dof rx
    limits (-10.0 170.0)
 end
 begin
     id 9 
     name rfoot
     direction -0.0766747 -0.210662 0.974547   
     length 1.98482  
     axis -90 -7.62852e-016 -20   XYZ
    dof rx rz
    limits (-45.0 90.0)
           (-20.0 70.0)
  end
  begin
     id 10 
     name rtoes
     direction -1.53532e-011 -4.21867e-011 1   
     length 0.999842   
     axis -90 -7.62852e-016 -20   XYZ
    dof rx
    limits (-90.0 20.0)
  end
  begin
     id 11 
     name lowerback
     direction -0.0224668 0.997354 -0.0691422   
     length 2.09945   
     axis 0 0 0   XYZ
    dof rx ry rz
    limits (-20.0 45.0)
           (-30.0 30.0)
           (-30.0 30.0)
  end
  begin
     id 12 
     name upperback
     direction 0.0134698 0.998451 -0.0539888   
     length 2.09758   
     axis 0 0 0   XYZ
    dof rx ry rz
    limits (-20.0 45.0)
           (-30.0 30.0)
           (-30.0 30.0)
  end
  begin
     id 13 
     name thorax
     direction 0.0241905 0.99948 -0.0213333   
     length 2.10428   
     axis 0 0 0   XYZ
    dof rx ry rz
    limits (-20.0 45.0)
           (-30.0 30.0)
           (-30.0 30.0)
  end
  begin
     id 14 
     name lowerneck
     direction -0.00866847 0.995978 0.0891737   
     length 1.3959   
     axis 0 0 0   XYZ
    dof rx ry rz
    limits (-20.0 45.0)
           (-30.0 30.0)
           (-30.0 30.0)
  end
  begin
     id 15 
     name upperneck
     direction 0.0680679 0.992203 0.104404   
     length 1.39452   
     axis 0 0 0   XYZ
    dof rx ry rz
    limits (-20.0 45.0)
           (-30.0 30.0)
           (-30.0 30.0)
  end
  begin
     id 16
     name head
     direction 0.0242216 0.999358 0.0264054  
     length 1.40433  
     axis 0 0 0   XYZ
    dof rx ry rz
    limits (-20.0 45.0)
           (-30.0 30.0)
           (-30.0 30.0)
  end
  begin
     id 17 
     name lclavicle
     direction 0.929368 0.362991 -0.0671771  
     length 3.04887  
     axis 0 0 0   XYZ
    dof ry rz
    limits (-20.0 10.0)
           (0.0 20.0)
  end
  begin
     id 18 
     name lhumerus
     direction 1 -4.48967e-011 -7.13741e-028   
     length 4.77195   
     axis -180 -30 -90   XYZ
    dof rx ry rz
    limits (-60.0 90.0)
           (-90.0 90.0)
           (-90.0 90.0)
  end
  begin
     id 19
     name lradius
     direction 1 -4.48977e-011 3.60404e-027   
     length 2.98444   
     axis -180 -30 -90   XYZ
    dof rx
    limits (-10.0 170.0)
  end
  begin
     id 20
     name lwrist
     direction 1 -4.48997e-011 7.54877e-027   
     length 1.49222   
     axis -7.18178e-015 90 90   XYZ
    dof ry
    limits (-180.0 0.0)
 end
  begin
     id 21 
     name lhand
     direction 1 -4.489e-011 1.51105e-026   
     length 0.992285   
     axis -9.63605e-015 90 90   XYZ
    dof rx rz
    limits (-90.0 90.0)
           (-45.0 45.0)
  end
  begin
     id 22 
     name lfingers
     direction 1 -4.48998e-011 3.01948e-026   
     length 0.800006   
     axis -1.92718e-014 90 90   XYZ
    dof rx
    limits (0.0 90.0)
  end
  begin
     id 23
     name lthumb
     direction 0.707107 -6.34881e-011 0.707107   
     length 1.14865   
     axis -90 45 -3.53137e-014   XYZ
    dof rx rz
    limits (-45.0 45.0)
           (-45.0 45.0)
  end
  begin
     id 24 
     name rclavicle
     direction -0.945672 0.324529 0.0196374   
     length 3.4236  
     axis 0 0 0   XYZ 
    dof ry rz
    limits (-10.0 20.0)
           (-20.0 0.0)
  end
  begin
     id 25 
     name rhumerus
     direction -1 -4.4896e-011 1.02757e-029  
     length 4.62052   
     axis -180 30 90   XYZ
    dof rx ry rz
    limits (-90.0 60.0)
           (-90.0 90.0)
           (-90.0 90.0)
  end
  begin
     id 26 
     name rradius
     direction -1 -4.48982e-011 3.85962e-027   
     length 2.95332   
     axis -180 30 90   XYZ
    dof rx
    limits (-10.0 170.0)
  end
  begin
     id 27 
     name rwrist
     direction -1 -4.48961e-011 7.55118e-027   
     length 1.47666   
     axis -7.18178e-015 -90 -90   XYZ
    dof ry
    limits (-180.0 0.0)
  end
  begin
     id 28
     name rhand
     direction -1 -4.48984e-011 1.50994e-026   
     length 0.990956   
     axis -9.63605e-015 -90 -90   XYZ
    dof rx rz
    limits (-90.0 90.0)
           (-45.0 45.0)
  end
  begin
     id 29
     name rfingers
     direction -1 -4.4892e-011 3.02158e-026   
     length 0.798934   
     axis -1.92718e-014 -90 -90   XYZ
    dof rx
    limits (0.0 90.0)
  end
  begin
     id 30
     name rthumb
     direction -0.707107 -6.34916e-011 0.707107   
     length 1.14711   
     axis -90 -45 3.53137e-014   XYZ
    dof rx rz
    limits (-45.0 45.0)
           (-45.0 45.0)
  end
:hierarchy
  begin
    root lhipjoint rhipjoint lowerback
    lhipjoint lfemur
    lfemur ltibia
    ltibia lfoot
    lfoot ltoes
    rhipjoint rfemur
    rfemur rtibia
    rtibia rfoot
    rfoot rtoes
    lowerback upperback
    upperback thorax
    thorax lowerneck lclavicle rclavicle
    lowerneck upperneck
    upperneck head
    lclavicle lhumerus
    lhumerus lradius
    lradius lwrist
    lwrist lhand lthumb
    lhand lfingers
    rclavicle rhumerus
    rhumerus rradius
    rradius rwrist
    rwrist rhand rthumb
    rhand rfingers
  end

#!OML:ASF H:\ManfredObstacles\Project 1\Capture day 1\Session 1\Male.ASF
:FULLY-SPECIFIED
:DEGREES
174
root 0.847721 16.5031 15.746 -170.716 -9.57923 -177.895
lowerback -10.7354 -3.49628 -1.86765
upperback 1.7165 -4.57074 1.78063
thorax 8.14881 -2.36376 2.12405
lowerneck -0.465173 -2.50066 -5.33003
upperneck -1.58851 -3.09058 9.52282
head -0.167934 -1.48629 4.05161
rclavicle 1.25731e-014 1.09332e-014
rhumerus -42.5522 -29.5598 -67.8289
rradius 24.8729
rwrist 33.9042
rhand -1.95983 -8.84077
rfingers 7.12502
rthumb 23.7119 -37.3981
lclavicle 1.25731e-014 1.09332e-014
lhumerus -30.1922 23.5622 76.9085
lradius 13.5728
lwrist -44.814
lhand -6.97378 7.07423
lfingers 7.12502
lthumb 18.896 36.1764
rfemur -27.6412 -10.2897 27.1966
rtibia 25.8075
rfoot -9.45055 11.5156
rtoes 26.3603
lfemur -5.63265 -4.24267 -15.2317
ltibia 36.629
lfoot 7.23081 -4.89407
ltoes -16.445
175
root 0.879834 16.5142 15.563 -170.755 -9.13859 -177.83
lowerback -10.6119 -3.25423 -1.54795
upperback 1.72522 -4.28464 1.69765
thorax 8.03811 -2.20723 1.91633
lowerneck -0.319989 -2.50706 -5.34431
upperneck -2.05711 -3.07498 9.40696
head -0.347353 -1.4872 4.02063
rclavicle 7.57121e-014 -4.07509e-015
rhumerus -42.0384 -29.0056 -68.4478
rradius 25.111
rwrist 33.6285
rhand -1.85433 -8.72731
rfingers 7.12502
rthumb 23.8131 -37.2714
lclavicle 7.57121e-014 -4.07509e-015
lhumerus -30.2772 22.3791 77.0377
lradius 14.0649
lwrist -43.1402
lhand -7.61804 7.08802
lfingers 7.12502
lthumb 18.2763 36.2494
rfemur -26.8401 -10.8633 27.5557
rtibia 25.5905
rfoot -9.67064 12.7051
rtoes 27.5032
lfemur -8.25417 -3.13081 -15.0367
ltibia 41.6986
lfoot 9.81248 -4.29369
ltoes -14.8501
176
root 0.913214 16.522 15.3867 -170.744 -8.71801 -177.664
lowerback -10.4889 -3.00721 -1.18988
upperback 1.67127 -4.00072 1.66232
thorax 7.86546 -2.05167 1.73714
lowerneck -0.170429 -2.49047 -5.42098
upperneck -2.40397 -3.03969 9.30035
head -0.48895 -1.47679 4.00485
rclavicle 4.06639e-014 -9.93923e-016
rhumerus -41.5481 -28.2419 -69.0968
rradius 25.3445
rwrist 33.3637
rhand -1.71007 -8.92058
rfingers 7.12502
rthumb 23.9514 -37.4466
lclavicle 4.06639e-014 -9.93923e-016
lhumerus -30.4489 21.2228 77.2205
lradius 14.7398
lwrist -41.2622
lhand -7.99414 7.43838
lfingers 7.12502
lthumb 17.9145 36.6333
rfemur -26.0897 -11.298 27.9921
rtibia 25.2739
rfoot -9.89968 13.7064
rtoes 27.181
lfemur -10.954 -2.04606 -14.7995
ltibia 46.5852
lfoot 11.3419 -3.09717
ltoes -17.6916
177
root 0.937763 16.5326 15.2202 -170.779 -8.48158 -177.455
lowerback -10.3133 -2.81284 -0.780928
upperback 1.67247 -3.80112 1.70447
thorax 7.73174 -1.93865 1.59582
lowerneck -0.0544691 -2.26049 -5.58787
upperneck -2.76377 -3.02445 9.18059
head -0.630033 -1.60847 4.0042
rclavicle -4.97334e-014 1.70458e-014
rhumerus -40.8561 -27.5448 -69.6277
rradius 25.4552
rwrist 33.2985
rhand -1.73046 -9.04682
rfingers 7.12502
rthumb 23.9319 -37.5754
lclavicle -4.97334e-014 1.70458e-014
lhumerus -30.5385 20.81 77.3439
lradius 15.4193
lwrist -39.7379
lhand -8.57632 7.60531
lfingers 7.12502
lthumb 17.3542 36.8505
rfemur -25.2941 -12.1485 28.4897
rtibia 24.8599
rfoot -9.96947 14.9615
rtoes 26.5694
lfemur -13.713 -1.28644 -14.5985
ltibia 51.1542
lfoot 12.4606 -2.02252
ltoes -14.7072
178
root 0.961549 16.5452 15.0572 -170.885 -8.30897 -177.205
lowerback -10.114 -2.5966 -0.356756
upperback 1.72939 -3.57533 1.76325
thorax 7.64619 -1.81344 1.46628
lowerneck 0.212218 -2.25503 -5.60607
upperneck -3.21926 -3.0005 9.00102
head -0.828822 -1.60384 3.9563
rclavicle -2.95692e-015 -4.87022e-015
rhumerus -40.0555 -27.0592 -70.0279
rradius 25.4296
rwrist 33.2952
rhand -1.97944 -8.93504
rfingers 7.12502
rthumb 23.6931 -37.4948
lclavicle -2.95692e-015 -4.87022e-015
lhumerus -30.5226 20.3639 77.5624
lradius 16.1065
lwrist -38.2569
lhand -9.21888 7.55121
lfingers 7.12502
lthumb 16.7357 36.8498
rfemur -24.3596 -12.8021 28.9397
rtibia 24.338
rfoot -10.0704 15.9128
rtoes 26.7181
lfemur -16.4582 -0.756391 -14.4
ltibia 55.2649
lfoot 11.0693 -0.662962
ltoes -16.9848
179
root 0.987084 16.5584 14.8992 -171.036 -8.09831 -177.058
lowerback -9.80839 -2.38504 -0.108185
upperback 1.79842 -3.32706 1.78794
thorax 7.52295 -1.6838 1.40556
lowerneck 0.485133 -2.24141 -5.48342
upperneck -3.67863 -2.96886 8.74686
head -1.03351 -1.59612 3.85575
rclavicle 3.05818e-014 -5.11871e-015
rhumerus -39.2594 -26.6516 -70.3956
rradius 25.3956
rwrist 33.3154
rhand -2.1475 -8.98902
rfingers 7.12502
rthumb 23.5319 -37.5695
lclavicle 3.05818e-014 -5.11871e-015
lhumerus -30.4111 19.5335 77.9723
lradius 16.8469
lwrist -36.1646
lhand -9.55536 7.5825
lfingers 7.12502
lthumb 16.4118 36.9082
rfemur -23.3439 -13.1094 29.1891
rtibia 23.8115
rfoot -10.3235 16.4101
rtoes 26.3912
lfemur -19.0424 -0.423259 -14.3481
ltibia 58.7533
lfoot 9.36254 0.652946
ltoes -16.008
180
root 1.01482 16.5686 14.744 -171.227 -7.82839 -176.88
lowerback -9.50388 -2.15472 0.0783336
upperback 1.91274 -3.04437 1.80115
thorax 7.45225 -1.53965 1.37008
lowerneck 0.648202 -2.23779 -5.4618
upperneck -4.01179 -2.95634 8.70666
head -1.17241 -1.59797 3.84698
rclavicle -7.57867e-015 -1.90585e-014
rhumerus -38.4675 -26.9097 -70.4909
rradius 25.1867
rwrist 33.9343
rhand -2.25418 -8.98956
rfingers 7.12502
rthumb 23.4296 -37.5832
lclavicle -7.57867e-015 -1.90585e-014
lhumerus -30.1051 18.4182 78.5537
lradius 17.5977
lwrist -33.6267
lhand -9.63111 7.928
lfingers 7.12502
lthumb 16.3389 37.2597
rfemur -22.302 -13.0062 29.3821
rtibia 23.3675
rfoot -10.8219 16.536
rtoes 25.7618
lfemur -21.461 -0.224942 -14.2519
ltibia 61.552
lfoot 7.25223 1.66429
ltoes -15.0452
181
root 1.0383 16.5711 14.5885 -171.403 -7.58764 -176.865
lowerback -9.20667 -2.01936 0.0677801
upperback 2.02131 -2.86048 1.78949
thorax 7.39208 -1.45095 1.40142
lowerneck 0.605697 -2.19602 -5.46765
upperneck -4.01727 -2.89866 8.68529
head -1.1713 -1.56779 3.83965
rclavicle -1.18339e-014 6.38596e-015
rhumerus -37.5561 -27.3479 -70.5204
rradius 24.7921
rwrist 34.7848
rhand -2.43185 -8.93184
rfingers 7.12502
rthumb 23.2591 -37.5471
lclavicle -1.18339e-014 6.38596e-015
lhumerus -29.9047 17.4504 79.0542
lradius 18.3538
lwrist -31.4616
lhand -9.75709 8.18683
lfingers 7.12502
lthumb 16.2176 37.5285
rfemur -21.3135 -12.8328 29.3529
rtibia 23.0941
rfoot -11.544 16.616
rtoes 26.1831
lfemur -23.6838 -0.257647 -14.3632
ltibia 63.5771
lfoot 5.19515 2.59173
ltoes -13.3539
182
root 1.05773 16.5669 14.4386 -171.397 -7.28741 -176.883
lowerback -9.03263 -1.95077 -0.0187211
upperback 2.09511 -2.76168 1.82174
thorax 7.37396 -1.40833 1.50387
lowerneck 0.292879 -2.06996 -5.37544
upperneck -3.84151 -2.72656 8.46214
head -1.07527 -1.46964 3.7332
rclavicle -1.36354e-014 7.33018e-015
rhumerus -36.4753 -27.0681 -70.9542
rradius 24.6727
rwrist 34.986
rhand -2.61725 -9.03989
rfingers 7.12502
rthumb 23.0813 -37.6775
lclavicle -1.36354e-014 7.33018e-015
lhumerus -29.7958 16.7925 79.4703
lradius 19.1455
lwrist -29.8327
lhand -9.79109 8.2166
lfingers 7.12502
lthumb 16.1848 37.5609
rfemur -20.6855 -12.6485 29.3245
rtibia 23.0907
rfoot -12.2211 16.8011
rtoes 26.6881
lfemur -25.9612 -0.36398 -14.5295
ltibia 64.8193
lfoot 3.51769 3.25268
ltoes -12.4378
183
root 1.07398 16.5619 14.2979 -171.192 -6.90306 -176.867
lowerback -8.9942 -1.77371 0.00841079
upperback 2.1154 -2.52692 1.80367
thorax 7.36404 -1.29197 1.50674
lowerneck -0.0457682 -1.98458 -5.24841
upperneck -3.69305 -2.60915 8.3254
head -0.97867 -1.40268 3.65156
rclavicle -1.15419e-014 6.95746e-016
rhumerus -35.5603 -26.5688 -71.6041
rradius 24.9749
rwrist 34.651
rhand -2.61839 -9.25403
rfingers 7.12502
rthumb 23.0802 -37.8918
lclavicle -1.15419e-014 6.95746e-016
lhumerus -29.5457 15.8941 79.951
lradius 19.8567
lwrist -28.5985
lhand -9.70818 8.38341
lfingers 7.12502
lthumb 16.2646 37.7212
rfemur -20.4708 -12.2756 29.3418
rtibia 23.411
rfoot -12.9439 16.9038
rtoes 26.6598
lfemur -28.3415 -0.464601 -14.6537
ltibia 65.2904
lfoot 1.95726 3.41066
ltoes -13.1131
